<?xml version="1.0" encoding="UTF-8" standalone="no"?>
<svg
   xmlns:svg="http://www.w3.org/2000/svg"
   xmlns="http://www.w3.org/2000/svg"
   xmlns:sodipodi="http://sodipodi.sourceforge.net/DTD/sodipodi-0.dtd"
   xmlns:inkscape="http://www.inkscape.org/namespaces/inkscape"
   height="32"
   width="32"
   viewBox="0 0 16 16"
   version="1.0"
   id="svg2"
   inkscape:version="0.91+devel+osxmenu r12922"
   sodipodi:docname="app.svg">
  <defs
     id="defs3356" />
  <sodipodi:namedview
     pagecolor="#c0c0c0"
     bordercolor="#666666"
     borderopacity="1"
     objecttolerance="10"
     gridtolerance="10"
     guidetolerance="10"
     inkscape:pageopacity="0"
     inkscape:pageshadow="2"
     inkscape:window-width="1440"
     inkscape:window-height="775"
     id="namedview16"
     showgrid="false"
     inkscape:zoom="14.75"
     inkscape:cx="8.8135593"
     inkscape:cy="16.135593"
     inkscape:window-x="0"
     inkscape:window-y="23"
     inkscape:window-maximized="0"
     inkscape:current-layer="svg2" />
  <rect
     rx=".5"
     ry=".5"
     height="4"
     width="4"
     y="1"
     x="1"
     id="rect4"
     style="fill:#ffffff;fill-opacity:1" />
  <rect
     rx="0.5"
     ry="0.5"
     height="1"
     width="9"
     y="2.5"
     x="6"
     id="rect6"
     style="fill:#ffffff;fill-opacity:1" />
  <rect
     rx=".5"
     ry=".5"
     height="4"
     width="4"
     y="6"
     x="1"
     id="rect8"
     style="fill:#ffffff;fill-opacity:1" />
  <rect
     rx="0.5"
     ry="0.5"
     height="1"
     width="9"
     y="7.5"
     x="6"
     id="rect10"
     style="fill:#ffffff;fill-opacity:1" />
  <path
     style="fill:#ffffff;fill-opacity:1;stroke-width:2"
     d="M 3 22 C 2.446 22 2 22.446 2 23 L 2 29 C 2 29.554 2.446 30 3 30 L 9 30 C 9.554 30 10 29.554 10 29 L 10 23 C 10 22.446 9.554 22 9 22 L 3 22 z M 4.6601562 24.033203 L 7.3398438 24.033203 C 7.7060471 24.033203 8 24.329109 8 24.695312 L 8 27.373047 C 8 27.73925 7.7060471 28.033203 7.3398438 28.033203 L 4.6601562 28.033203 C 4.2939529 28.033203 4 27.73925 4 27.373047 L 4 24.695312 C 4 24.329109 4.2939529 24.033203 4.6601562 24.033203 z "
     transform="scale(0.5)"
     id="rect12" />
  <rect
     rx="0.5"
     ry="0.5"
     height="1"
     width="9"
     y="12.5"
     x="6"
     id="rect14"
     style="fill:#ffffff;fill-opacity:1" />
</svg>
